HIERARCHY
ROOT Hips
{
    OFFSET 0.000000 0.000000 0.000000
    CHANNELS 6 Xposition Yposition Zposition Zrotation Xrotation Yrotation
    JOINT Spine
    {
        OFFSET -0.000000 7.236184 0.000000
        CHANNELS 3 Zrotation Xrotation Yrotation
        JOINT Spine1
        {
            OFFSET -0.000000 20.420147 0.000000
            CHANNELS 3 Zrotation Xrotation Yrotation
            JOINT Neck
            {
                OFFSET -0.000000 20.336288 1.848754
                CHANNELS 3 Zrotation Xrotation Yrotation
                JOINT Head
                {
                    OFFSET -0.000000 12.354461 -1.764923
                    CHANNELS 3 Zrotation Xrotation Yrotation
                    End Site
                    {
                        OFFSET -0.000000 22.061537 0.000000
                    }
                }
            }
            JOINT LeftShoulder
            {
                OFFSET 3.573296 18.396038 -0.314103
                CHANNELS 3 Zrotation Xrotation Yrotation
                JOINT LeftArm
                {
                    OFFSET 10.880760 0.000000 0.000000
                    CHANNELS 3 Zrotation Xrotation Yrotation
                    JOINT LeftForeArm
                    {
                        OFFSET 27.185530 0.000000 0.000000
                        CHANNELS 3 Zrotation Xrotation Yrotation
                        JOINT LeftHand
                        {
                            OFFSET 27.825975 0.000000 0.000000
                            CHANNELS 3 Zrotation Xrotation Yrotation
                            End Site
                            {
                                OFFSET 13.236923 0.000000 0.000000
                            }
                        }
                    }
                }
            }
            JOINT RightShoulder
            {
                OFFSET -3.474926 18.396038 -0.314103
                CHANNELS 3 Zrotation Xrotation Yrotation
                JOINT RightArm
                {
                    OFFSET -10.880760 0.000000 0.000000
                    CHANNELS 3 Zrotation Xrotation Yrotation
                    JOINT RightForeArm
                    {
                        OFFSET -27.185530 0.000000 0.000000
                        CHANNELS 3 Zrotation Xrotation Yrotation
                        JOINT RightHand
                        {
                            OFFSET -27.825975 0.000000 0.000000
                            CHANNELS 3 Zrotation Xrotation Yrotation
                            End Site
                            {
                                OFFSET -13.236923 0.000000 0.000000
                            }
                        }
                    }
                }
            }
        }
    }
    JOINT LeftUpLeg
    {
        OFFSET 8.824615 0.000000 0.000000
        CHANNELS 3 Zrotation Xrotation Yrotation
        JOINT LeftLeg
        {
            OFFSET -0.000000 -35.111282 0.000000
            CHANNELS 3 Zrotation Xrotation Yrotation
            JOINT LeftFoot
            {
                OFFSET -0.000000 -42.324711 0.000000
                CHANNELS 3 Zrotation Xrotation Yrotation
                JOINT LeftToeBase
                {
                    OFFSET -0.000000 -5.735999 13.236923
                    CHANNELS 3 Zrotation Xrotation Yrotation
                    End Site
                    {
                        OFFSET -0.000000 0.000000 3.529846
                    }
                }
            }
        }
    }
    JOINT RightUpLeg
    {
        OFFSET -8.824615 0.000000 0.000000
        CHANNELS 3 Zrotation Xrotation Yrotation
        JOINT RightLeg
        {
            OFFSET -0.000000 -35.111282 0.000000
            CHANNELS 3 Zrotation Xrotation Yrotation
            JOINT RightFoot
            {
                OFFSET -0.000000 -42.324711 0.000000
                CHANNELS 3 Zrotation Xrotation Yrotation
                JOINT RightToeBase
                {
                    OFFSET -0.000000 -5.735999 13.236923
                    CHANNELS 3 Zrotation Xrotation Yrotation
                    End Site
                    {
                        OFFSET -0.000000 0.000000 3.529846
                    }
                }
            }
        }
    }
}
MOTION
Frames:    10
Frame Time:    0.008333
3.406433    88.955513    92.443695    20.883125    31.947292    -116.081009    3.500381    -3.760872    0.487960    12.613890    1.756396    0.178989    5.547984    15.673512    -25.725485    28.617254    -9.185992    -20.738186    7.740191    5.764059    -8.175463    -28.402163    30.041683    -65.771133    20.612045    -25.295914    -116.171486    39.694607    4.710735    -9.893343    5.274992    12.738531    -4.775707    35.476784    16.402008    19.631474    -10.069083    -6.588625    18.528603    -28.220297    -4.495956    -1.813673    36.276081    -13.075846    13.161371    1.285237    17.137384    7.187313    3.090269    -6.636889    -7.463031    0.195747    -3.122921    -0.218239    -66.526443    -56.513538    -52.986912    160.814606    54.599293    -140.437271    6.427905    -3.586877    -11.204217    1.476080    -3.003081    -1.603239
3.309459    88.842735    92.600128    20.708317    31.041368    -116.714600    3.387151    -3.932797    0.394697    12.337515    1.840208    0.079447    5.413920    15.568371    -25.370897    28.199329    -9.059135    -20.486605    7.689063    5.795145    -8.010792    -28.493471    30.294973    -65.234505    20.877363    -25.479980    -115.663925    39.810135    4.622706    -9.869926    5.294284    12.817827    -4.921022    35.861629    16.701210    19.870169    -10.301257    -6.632595    19.575764    -28.227785    -4.442530    -1.664450    35.314247    -12.787085    12.888164    1.319313    17.158920    7.207448    3.052451    -6.544580    -7.333066    0.090694    -3.479147    -0.101185    -64.678017    -57.360371    -52.381413    160.600357    54.567635    -140.287033    6.207154    -3.559478    -11.442142    1.539556    -2.231758    -1.670332
3.208136    88.728714    92.760239    20.512726    30.100855    -117.369133    3.263445    -4.115668    0.302874    12.033513    1.914903    -0.016204    5.264597    15.483097    -25.000860    27.774923    -8.908201    -20.223549    7.627316    5.831873    -7.831881    -28.598295    30.555178    -64.654709    21.133089    -25.631914    -115.144928    39.933773    4.537788    -9.852826    5.315945    12.913325    -5.063468    36.261520    17.021427    20.139414    -10.527551    -6.662960    20.584202    -28.263708    -4.374161    -1.519017    34.323906    -12.507076    12.558079    1.360200    17.194225    7.175654    2.984496    -6.433323    -7.220265    -0.020210    -3.855434    0.022562    -62.648277    -58.189644    -51.552315    160.284286    54.736042    -140.077759    5.979828    -3.521453    -11.747291    1.507631    -2.038177    -1.635246
3.102669    88.613914    92.921707    20.292881    29.133404    -118.037315    3.128162    -4.305414    0.214534    11.703237    1.978025    -0.105534    5.101120    15.419167    -24.619688    27.348722    -8.736170    -19.951786    7.555616    5.877065    -7.638597    -28.717419    30.817810    -64.039063    21.375301    -25.746605    -114.618706    40.062527    4.458374    -9.842714    5.340858    13.024886    -5.201361    36.672413    17.358990    20.437342    -10.743040    -6.676185    21.533951    -28.328577    -4.291159    -1.375417    33.313076    -12.239248    12.161367    1.406595    17.248394    7.086895    2.888314    -6.304347    -7.126077    -0.132894    -4.252277    0.148483    -60.445076    -58.980904    -50.478428    159.866440    55.086906    -139.797104    5.750664    -3.481425    -12.123177    1.470597    -1.866963    -1.594691
2.992525    88.497505    93.084053    20.044563    28.137196    -118.718056    2.979223    -4.500991    0.131095    11.345755    2.029325    -0.187483    4.921949    15.374703    -24.228497    26.922461    -8.544238    -19.671732    7.473975    5.934674    -7.428498    -28.847015    31.080462    -63.393780    21.605135    -25.824951    -114.082031    40.194603    4.384456    -9.839742    5.368187    13.152781    -5.334609    37.095615    17.710966    20.763571    -10.944364    -6.668649    22.417763    -28.422554    -4.192972    -1.229824    32.280167    -11.985903    11.685409    1.456264    17.327400    6.938599    2.766415    -6.159556    -7.051371    -0.244171    -4.670609    0.273037    -58.063408    -59.719685    -49.138794    159.339783    55.601677    -139.429504    5.520473    -3.444400    -12.566950    1.435102    -1.717599    -1.555873
2.877795    88.379082    93.246307    19.765690    27.114559    -119.407646    2.816061    -4.701692    0.053865    10.961330    2.069707    -0.260326    4.727083    15.347006    -23.830336    26.498655    -8.335853    -19.385328    7.383272    6.010147    -7.199803    -28.980375    31.338158    -62.731091    21.824306    -25.868940    -113.532127    40.327282    4.315738    -9.843576    5.397149    13.296309    -5.461211    37.531288    18.073050    21.113688    -11.128327    -6.638318    23.227562    -28.545723    -4.080442    -1.080183    31.227610    -11.751267    11.122202    1.507324    17.435684    6.729847    2.622054    -6.002107    -7.000196    -0.350646    -5.106272    0.392437    -55.512875    -60.387840    -47.526363    158.695343    56.261143    -138.965256    5.290053    -3.412590    -13.064279    1.407126    -1.590583    -1.525270
2.758492    88.257957    93.407990    19.454960    26.066135    -120.103798    2.638307    -4.908323    -0.015485    10.550632    2.101352    -0.323077    4.515193    15.332048    -23.427959    26.080276    -8.114511    -19.094200    7.283627    6.108377    -6.950957    -29.109453    31.586557    -62.063110    22.035315    -25.881466    -112.964851    40.458271    4.251836    -9.853622    5.425776    13.455420    -5.579122    37.981567    18.441076    21.482334    -11.292871    -6.585127    23.960421    -28.696785    -3.955586    -0.924960    30.156113    -11.539857    10.466496    1.558498    17.577461    6.458854    2.458540    -5.835822    -6.976998    -0.450172    -5.552844    0.504273    -52.805180    -60.968864    -45.644997    157.922379    57.048569    -138.400284    5.060016    -3.385815    -13.595762    1.389183    -1.485155    -1.505597
2.634710    88.133575    93.568687    19.112165    24.993124    -120.804321    2.446800    -5.122256    -0.076112    10.114246    2.127317    -0.374189    4.286412    15.325151    -23.024143    25.668362    -7.885415    -18.800110    7.174967    6.231519    -6.682112    -29.228333    31.822412    -61.398586    22.240179    -25.864241    -112.376640    40.585320    4.192433    -9.869762    5.451869    13.629762    -5.685945    38.448681    18.812681    21.862713    -11.436511    -6.511679    24.615973    -28.874363    -3.822448    -0.763662    29.067051    -11.356457    9.717051    1.608527    17.755840    6.121252    2.279933    -5.664063    -6.984272    -0.539937    -6.001241    0.605369    -49.958324    -61.446945    -43.512012    157.010193    57.949474    -137.732285    4.832102    -3.363332    -14.142988    1.380145    -1.399969    -1.495623
2.506815    88.005455    93.727783    18.738510    23.898544    -121.506256    2.242868    -5.344965    -0.126417    9.654477    2.151227    -0.412980    4.041038    15.319934    -22.622284    25.264166    -7.653346    -18.505590    7.057420    6.378418    -6.394444    -29.333542    32.044025    -60.745121    22.439583    -25.817823    -111.765633    40.706089    4.137641    -9.891989    5.472433    13.818507    -5.779867    38.932987    19.187044    22.248056    -11.557517    -6.422443    25.195044    -29.076498    -3.686399    -0.597652    27.963581    -11.205983    8.878022    1.656722    17.972937    5.709589    2.090752    -5.490650    -7.021491    -0.617900    -6.439880    0.693394    -47.002518    -61.807152    -41.161846    155.950119    58.949825    -136.958023    4.608522    -3.345236    -14.692158    1.375791    -1.332414    -1.490763
2.376148    87.873970    93.883720    18.338537    22.792955    -122.202454    2.029695    -5.575648    -0.164520    9.176951    2.175778    -0.438154    3.782594    15.310745    -22.228596    24.870228    -7.426547    -18.215162    6.931494    6.545294    -6.092331    -29.423395    32.249031    -60.111893    22.631321    -25.740925    -111.135162    40.818027    4.087833    -9.921523    5.486056    14.019110    -5.859847    39.429684    19.561543    22.629248    -11.653930    -6.323627    25.696812    -29.298239    -3.554385    -0.429215    26.856005    -11.093462    7.964511    1.702748    18.228493    5.219250    1.896867    -5.321361    -7.086069    -0.682107    -6.853047    0.766090    -43.996052    -62.036190    -38.658268    154.742264    60.028912    -136.077118    4.392782    -3.332081    -15.231396    1.370418    -1.279397    -1.484831
